<?xml version="1.0" encoding="utf-8"?>
<!-- Generator: Adobe Illustrator 15.0.0, SVG Export Plug-In . SVG Version: 6.00 Build 0)  -->
<!DOCTYPE svg PUBLIC "-//W3C//DTD SVG 1.1//EN" "http://www.w3.org/Graphics/SVG/1.1/DTD/svg11.dtd" [
	<!ENTITY ns_flows "http://ns.adobe.com/Flows/1.0/">
	<!ENTITY ns_extend "http://ns.adobe.com/Extensibility/1.0/">
	<!ENTITY ns_ai "http://ns.adobe.com/AdobeIllustrator/10.0/">
	<!ENTITY ns_graphs "http://ns.adobe.com/Graphs/1.0/">
]>
<svg version="1.1" id="Layer_1" xmlns:x="&ns_extend;" xmlns:i="&ns_ai;" xmlns:graph="&ns_graphs;"
	 xmlns="http://www.w3.org/2000/svg" xmlns:xlink="http://www.w3.org/1999/xlink" xmlns:a="http://ns.adobe.com/AdobeSVGViewerExtensions/3.0/"
	 x="0px" y="0px" width="553.125px" height="151.042px" viewBox="0 0 553.125 151.042" enable-background="new 0 0 553.125 151.042"
	 xml:space="preserve">
<g>
	<path fill="#FFFFFF" d="M13.791,128.415V113.32h15.094v15.095H13.791z"/>
	<path fill="#FFFFFF" d="M36.846,64.487V51.613h38.401v12.875H36.846z M44.985,128.415V41.18c0-6.758,1.43-11.839,4.292-15.242
		c2.86-3.404,7.325-5.105,13.392-5.105h12.579v14.354H64.444c-1.529,0-2.639,0.581-3.33,1.739c-0.691,1.159-1.036,2.528-1.036,4.106
		v87.383H44.985z"/>
	<path fill="#FFFFFF" d="M83.208,128.415V51.613h15.094v76.802H83.208z M125.457,69.814c-2.713-3.304-6.733-4.957-12.061-4.957
		c-4.834,0-8.559,1.32-11.172,3.958c-2.615,2.64-3.921,6.302-3.921,10.987l-1.554-14.798c2.318-4.537,5.364-8.089,9.138-10.655
		c3.773-2.564,7.928-3.847,12.467-3.847c7.003,0,12.652,1.998,16.944,5.993L125.457,69.814z"/>
	<path fill="#FFFFFF" d="M164.864,129.524c-9.422,0-16.488-1.948-21.198-5.845c-4.711-3.896-7.066-9.865-7.066-17.906
		c0-7.596,2.146-13.293,6.437-17.092c4.292-3.798,10.777-5.697,19.459-5.697h21.827l1.036,12.135H162.57
		c-3.897,0-6.833,0.876-8.805,2.627c-1.974,1.751-2.959,4.428-2.959,8.027c0,3.947,1.306,6.845,3.921,8.694
		c2.614,1.85,6.535,2.774,11.765,2.774c5.721,0,10.013-0.616,12.874-1.85c2.86-1.232,4.292-3.156,4.292-5.771l1.554,10.803
		c-1.332,2.071-2.985,3.773-4.957,5.105c-1.974,1.332-4.243,2.331-6.807,2.996C170.882,129.191,168.021,129.524,164.864,129.524z
		 M183.658,128.415V79.729c0-5.031-1.345-8.94-4.033-11.728c-2.689-2.786-6.5-4.181-11.431-4.181
		c-6.413,0-12.012,1.775-16.796,5.327l-11.024-7.547c2.91-3.502,6.745-6.227,11.505-8.176c4.76-1.948,10.05-2.922,15.871-2.922
		c9.619,0,17.066,2.491,22.345,7.473c5.278,4.983,7.917,12.013,7.917,21.088v49.352H183.658z"/>
	<path fill="#FFFFFF" d="M213.372,128.415V51.613h15.094v76.802H213.372z M259.246,128.415v-46.54c0-5.376-1.332-9.557-3.996-12.541
		s-6.437-4.477-11.32-4.477c-4.933,0-8.744,1.308-11.432,3.921c-2.689,2.615-4.032,6.289-4.032,11.024l-1.554-14.798
		c2.368-4.636,5.462-8.213,9.286-10.729c3.822-2.516,8.052-3.773,12.689-3.773c8.089,0,14.354,2.726,18.793,8.176
		c4.439,5.451,6.659,13.159,6.659,23.122v46.614H259.246z M305.12,128.415v-46.54c0-5.376-1.406-9.557-4.217-12.541
		c-2.812-2.984-6.759-4.477-11.838-4.477c-4.687,0-8.313,1.431-10.877,4.291c-2.565,2.861-3.847,6.906-3.847,12.135l-3.034-14.798
		c2.416-5.08,5.61-9.015,9.582-11.802c3.97-2.786,8.348-4.18,13.133-4.18c8.335,0,14.786,2.726,19.349,8.176
		c4.562,5.451,6.844,13.159,6.844,23.122v46.614H305.12z"/>
	<path fill="#FFFFFF" d="M367.76,129.524c-10.704,0-18.991-2.971-24.86-8.916c-5.871-5.943-8.805-14.439-8.805-25.489v-8.657
		c0-11.442,2.823-20.297,8.472-26.563c5.647-6.264,13.602-9.396,23.862-9.396c9.667,0,17.152,3.564,22.456,10.691
		c5.302,7.129,7.953,17.08,7.953,29.855v5.031h-51.793V83.946h37.439c-0.444-6.215-2.061-11.073-4.847-14.576
		c-2.787-3.501-6.523-5.253-11.209-5.253c-5.674,0-10.089,1.875-13.245,5.623c-3.157,3.749-4.735,9.053-4.735,15.908v9.767
		c0,6.363,1.677,11.247,5.031,14.65s8.114,5.105,14.28,5.105c6.462,0,12.184-2.343,17.166-7.029l9.915,9.914
		c-3.799,3.651-8.065,6.475-12.801,8.473C377.305,128.525,372.544,129.524,367.76,129.524z"/>
	<path fill="#FFFFFF" d="M409.98,128.415V20.833h15.094v107.583H409.98z M415.529,117.168l0.962-17.905l39.511-47.65h17.758
		L415.529,117.168z M461.107,128.415l-26.784-44.32l9.692-10.063l33.518,54.383H461.107z"/>
	<path fill="#FFFFFF" d="M482.535,35.927V20.833h15.094v15.094H482.535z M482.535,128.415V51.613h15.094v76.802H482.535z"/>
	<path fill="#FFFFFF" d="M507.07,65.228V51.613h34.628v13.615H507.07z M532.966,128.415c-6.314,0-10.889-1.751-13.725-5.254
		c-2.837-3.502-4.255-8.533-4.255-15.094v-78.8h15.095v78.948c0,1.825,0.369,3.255,1.109,4.291s1.824,1.554,3.256,1.554h7.251
		v14.354H532.966z"/>
</g>
</svg>
